<?xml version="1.0" encoding="UTF-8"?>
<svg version="1.1" viewBox="0 0 1600 1600" width="current" height="current" xmlns="http://www.w3.org/2000/svg">
<path transform="translate(0)" d="m0 0h1600v1600h-1600v-1600z" fill="#FEFEFE"/>
<path transform="translate(157 577)" d="m0 0h2.77c3.08-0.01 6.15-0.01 9.23-0 2.23-0 4.46-0.01 6.69-0.01h18.5 18c12.4-0.01 24.9-0.01 37.3-0.01h37.8 2.41c3.24 0 6.49-0.01 9.73-0.01 33.8-0.01 67.6-0.01 101-0.01h10.9 2.74c20 0 40 0 60-0.01h24.7 2.76c52.2-0.01 104-0.01 156-0.01h5.85 26.4 11.8 5.9c62.2 0 124-0.01 187-0.02 15.7 0 31.4-0.01 47-0.01h2.92c29.8-0.01 59.5-0.01 89.2-0.01h2.82 61.5 22 5.47c29.1 0 58.2-0.01 87.3-0.02 29.3 0 58.6-0.01 87.9 0h12.1 2.4c12.6 0 25.2 0 37.7-0.01h37c6.61 0.01 13.2 0.01 19.8 0 6.01-0.01 12 0 18 0 2.17 0.01 4.34 0.01 6.5 0 2.93-0.01 5.86 0 8.79 0.01 0.84-0.01 1.69-0.01 2.56-0.02 4.26 0.03 7.53 0.29 11.4 2.27 0.72 5.2 1.12 10.2 1.13 15.5v2.12c0.01 2.29 0 4.57 0 6.86v4.79c0.01 3.33 0 6.67 0 10-0.01 4.28 0 8.56 0 12.8 0.01 3.3 0.01 6.59 0 9.88v4.74c0.01 2.19 0 4.39 0 6.59v3.79c-0.13 2.92-0.13 2.92-1.13 4.92-0.1 1.86-0.13 3.73-0.13 5.59-0.01 1.11-0.01 2.23-0.01 3.37 0.01 1.75 0.01 1.75 0.01 3.54 0 1.16 0 2.33-0.01 3.53 0 1.11 0 2.23 0.01 3.37v3.11c-0.04 2.49-0.04 2.49 1.13 4.49 0.09 1.5 0.12 3 0.12 4.5 0.01 0.96 0.01 1.91 0.01 2.89v3.2 3.38 11.3 8.07c0.01 6.56 0.01 13.1 0 19.7v16 2.3 4.62c0.01 14.5 0 28.9 0 43.4-0.01 12.4-0.01 24.8 0 37.2 0 14.4 0.01 28.8 0 43.2v4.61 2.29 16c0.01 6.5 0.01 13 0 19.5v9.94 10.8 3.16c0 0.97 0 1.94-0.01 2.93v2.51c-0.12 2.63-0.12 2.63-0.62 5.54-0.78 5.36-0.62 10.7-0.6 16.2 0 1.14 0 2.28 0.01 3.46 0 3.64 0.01 7.28 0.03 10.9 0 2.48 0.01 4.95 0.01 7.42 0.01 6.05 0.03 12.1 0.05 18.2-40.2 0.04-80.4 0.08-121 0.12h-2.38c-84.3 0.09-169 0.17-253 0.25h-5.61c-39.3 0.04-78.6 0.07-118 0.11-19.7 0.02-39.5 0.03-59.2 0.05-2.98 0-5.95 0.01-8.93 0.01-45.9 0.04-91.7 0.08-138 0.13h-2.99c-15.9 0.02-31.8 0.04-47.7 0.05-45.8 0.05-91.6 0.1-137 0.14h-2.85c-20.7 0.02-41.3 0.04-62 0.05-8.31 0.01-16.6 0.02-24.9 0.02-0.91 0-1.82 0.01-2.75 0.01-29.4 0.02-58.7 0.05-88 0.09-29.6 0.03-59.1 0.06-88.6 0.08-4.08 0-8.16 0-12.2 0.01h-2.43c-12.7 0.01-25.4 0.02-38 0.04-12.5 0.02-24.9 0.03-37.4 0.03-6.67 0-13.4 0.01-20 0.02-6.05 0.02-12.1 0.02-18.2 0.02-2.18 0-4.37 0-6.56 0.01-2.95 0.01-5.91 0-8.86 0-0.86 0-1.72 0.01-2.6 0.02-3.92-0.02-5.87-0.04-9.2-2.26-0.3-2.43-0.4-4.61-0.37-7.04-0.01-0.74-0.01-1.48-0.01-2.23-0.01-2.5 0-4.99 0.01-7.49 0-1.79 0-3.59-0.01-5.38-0.01-4.96 0-9.91 0.02-14.9 0.01-5.33 0-10.7 0-16-0.01-10.5 0-20.9 0.02-31.4 0.01-12.2 0.02-24.4 0.02-36.5 0-21.7 0.01-43.4 0.04-65.2 0.02-21.1 0.03-42.2 0.04-63.3v-3.94-7.84-3.91-3.9l0.03-60.2c0-7.28 0.01-14.6 0.01-21.8 0-11.6 0.01-23.1 0.03-34.7 0-5.28 0.01-10.6 0.01-15.8 0-4.83 0.01-9.67 0.01-14.5 0.01-1.75 0.01-3.5 0.01-5.25 0-2.38 0-4.76 0.01-7.13 0-0.68-0.01-1.37-0.01-2.07 0.02-3.93 0.39-7.62 1.14-11.5 5.45-0.92 10.7-1.14 16.2-1.13z" fill="#FEFEFE"/>
<path transform="translate(236 697)" d="m0 0c1.21-0 2.41-0.01 3.66-0.01h10c3.64 0.01 7.28 0 10.9 0 6.39-0.01 12.8-0.01 19.2 0 9.5 0 19 0 28.5-0.01 17-0.01 33.9-0.01 50.9 0 14.8 0.01 29.7 0.01 44.5 0h2.98 12c37.5 0 74.9 0 112 0.01 33.3 0.01 66.6 0.01 99.9 0 37.4-0.01 74.8-0.01 112-0.01h12 2.97c14.8 0.01 29.7 0 44.5 0 16.9-0.01 33.7-0.01 50.6 0.01 9.44 0 18.9 0 28.3-0.01 6.3 0 12.6 0 18.9 0.01 3.6 0.01 7.19 0.01 10.8 0 3.86-0.01 7.72 0 11.6 0.01 1.13-0 2.26-0.01 3.43-0.01 1.53 0 1.53 0 3.09 0.01h2.68c2.12 0.25 2.12 0.25 4.12 2.25 0.19 2.64 0.26 5.16 0.24 7.8v2.46c0 2.75-0.01 5.49-0.02 8.24v5.88c0 5.34-0.01 10.7-0.02 16-0.01 5.57-0.01 11.1-0.02 16.7 0 10.6-0.02 21.1-0.04 31.7-0.02 12-0.03 24-0.04 36-0.02 24.7-0.06 49.4-0.1 74.2-2.47 1.23-4.07 1.13-6.83 1.13-1.02 0-2.05 0-3.11 0.01-1.71-0.01-1.71-0.01-3.45-0.01-1.21 0-2.42 0-3.66 0.01h-10.1c-3.66-0.01-7.32 0-11 0-6.43 0.01-12.9 0.01-19.3 0.01-9.56 0-19.1 0-28.7 0.01-18.1 0.01-36.1 0.01-54.2 0.01h-41.8c-4.01 0.01-8.02 0.01-12 0.01h-3.02c-28 0-56.1 0.01-84.1 0.01h-3.2-16.1-3.22-6.47c-33.5 0-67 0-101 0.02-37.6 0.01-75.3 0.02-113 0.02h-12-2.99c-15.9 0-31.8 0.01-47.8 0.02h-48c-9.5-0.01-19 0-28.5 0.01-6.34 0-12.7 0-19-0.01-3.62 0-7.24 0-10.9 0.01-3.88 0.01-7.77 0-11.7-0.01-1.14 0.01-2.27 0.01-3.45 0.02-1.54-0.01-1.54-0.01-3.12-0.02h-2.69c-2.25-0.25-2.25-0.25-5.25-2.25-0.21-2.69-0.23-5.18-0.13-7.87 0.16-8.73 0-17.4-0.3-26.1-1.33-40.2-0.51-80.4 0.07-121 0.02-1.64 0.05-3.27 0.07-4.91 0.04-3.03 0.09-6.06 0.13-9.09 0.15-9.81 0.18-19.6 0.16-29.4 6.34-2.26 12.2-2.28 18.9-2.25z" fill="#003A6C"/>
<path transform="translate(157 577)" d="m0 0h2.77c3.08-0.01 6.15-0.01 9.23-0 2.23-0 4.46-0.01 6.69-0.01h18.5 18c12.4-0.01 24.9-0.01 37.3-0.01h37.8 2.41c3.24 0 6.49-0.01 9.73-0.01 33.8-0.01 67.6-0.01 101-0.01h10.9 2.74c20 0 40 0 60-0.01h24.7 2.76c52.2-0.01 104-0.01 156-0.01h5.85 26.4 11.8 5.9c62.2 0 124-0.01 187-0.02 15.7 0 31.4-0.01 47-0.01h2.92c29.8-0.01 59.5-0.01 89.2-0.01h2.82 61.5 22 5.47c29.1 0 58.2-0.01 87.3-0.02 29.3 0 58.6-0.01 87.9 0h12.1 2.4c12.6 0 25.2 0 37.7-0.01h37c6.61 0.01 13.2 0.01 19.8 0 6.01-0.01 12 0 18 0 2.17 0.01 4.34 0.01 6.5 0 2.93-0.01 5.86 0 8.79 0.01 0.84-0.01 1.69-0.01 2.56-0.02 4.26 0.03 7.53 0.29 11.4 2.27 0.72 5.2 1.12 10.2 1.13 15.5v2.12c0.01 2.29 0 4.57 0 6.86v4.79c0.01 3.33 0 6.67 0 10-0.01 4.28 0 8.56 0 12.8 0.01 3.3 0.01 6.59 0 9.88v4.74c0.01 2.19 0 4.39 0 6.59v3.79c-0.13 2.92-0.13 2.92-1.13 4.92-0.1 1.86-0.13 3.73-0.13 5.59-0.01 1.11-0.01 2.23-0.01 3.37 0.01 1.75 0.01 1.75 0.01 3.54 0 1.16 0 2.33-0.01 3.53 0 1.11 0 2.23 0.01 3.37v3.11c-0.04 2.49-0.04 2.49 1.13 4.49 0.09 1.5 0.12 3 0.12 4.5 0.01 0.96 0.01 1.91 0.01 2.89v3.2 3.38 11.3 8.07c0.01 6.56 0.01 13.1 0 19.7v16 2.3 4.62c0.01 14.5 0 28.9 0 43.4-0.01 12.4-0.01 24.8 0 37.2 0 14.4 0.01 28.8 0 43.2v4.61 2.29 16c0.01 6.5 0.01 13 0 19.5v9.94 10.8 3.16c0 0.97 0 1.94-0.01 2.93v2.51c-0.12 2.63-0.12 2.63-0.62 5.54-0.78 5.36-0.62 10.7-0.6 16.2 0 1.14 0 2.28 0.01 3.46 0 3.64 0.01 7.28 0.03 10.9 0 2.48 0.01 4.95 0.01 7.42 0.01 6.05 0.03 12.1 0.05 18.2-40.2 0.04-80.4 0.08-121 0.12h-2.38c-84.3 0.09-169 0.17-253 0.25h-5.61c-39.3 0.04-78.6 0.07-118 0.11-19.7 0.02-39.5 0.03-59.2 0.05-2.98 0-5.95 0.01-8.93 0.01-45.9 0.04-91.7 0.08-138 0.13h-2.99c-15.9 0.02-31.8 0.04-47.7 0.05-45.8 0.05-91.6 0.1-137 0.14h-2.85c-20.7 0.02-41.3 0.04-62 0.05-8.31 0.01-16.6 0.02-24.9 0.02-0.91 0-1.82 0.01-2.75 0.01-29.4 0.02-58.7 0.05-88 0.09-29.6 0.03-59.1 0.06-88.6 0.08-4.08 0-8.16 0-12.2 0.01h-2.43c-12.7 0.01-25.4 0.02-38 0.04-12.5 0.02-24.9 0.03-37.4 0.03-6.67 0-13.4 0.01-20 0.02-6.05 0.02-12.1 0.02-18.2 0.02-2.18 0-4.37 0-6.56 0.01-2.95 0.01-5.91 0-8.86 0-0.86 0-1.72 0.01-2.6 0.02-3.92-0.02-5.87-0.04-9.2-2.26-0.3-2.43-0.4-4.61-0.37-7.04-0.01-0.74-0.01-1.48-0.01-2.23-0.01-2.5 0-4.99 0.01-7.49 0-1.79 0-3.59-0.01-5.38-0.01-4.96 0-9.91 0.02-14.9 0.01-5.33 0-10.7 0-16-0.01-10.5 0-20.9 0.02-31.4 0.01-12.2 0.02-24.4 0.02-36.5 0-21.7 0.01-43.4 0.04-65.2 0.02-21.1 0.03-42.2 0.04-63.3v-3.94-7.84-3.91-3.9l0.03-60.2c0-7.28 0.01-14.6 0.01-21.8 0-11.6 0.01-23.1 0.03-34.7 0-5.28 0.01-10.6 0.01-15.8 0-4.83 0.01-9.67 0.01-14.5 0.01-1.75 0.01-3.5 0.01-5.25 0-2.38 0-4.76 0.01-7.13 0-0.68-0.01-1.37-0.01-2.07 0.02-3.93 0.39-7.62 1.14-11.5 5.45-0.92 10.7-1.14 16.2-1.13zm843 14.4c-1.2 0.02-1.2 0.02-2.43 0.04-3.35 0.04-6.69 0.09-10 0.13-41.9 0.57-83.9 0.74-126 0.7-9.39-0.01-18.8-0.02-28.2-0.02-17.3-0.01-34.6-0.02-51.9-0.03-24.7-0.02-49.4-0.03-74.1-0.03-9.97-0.01-19.9-0.01-29.9-0.01h-3.35c-26.1-0.01-52.3-0.03-78.4-0.04h-3.45c-26.7-0.01-53.4-0.03-80-0.04h-3.5c-4.66-0.01-9.32-0.01-14-0.01-2.33 0-4.66-0.01-6.99-0.01h-6.97c-38.4-0.02-76.8-0.04-115-0.05h-16.2c-1.07 0-2.13 0-3.23-0.01-17.1 0-34.2-0.01-51.3-0.03-17.1-0.01-34.3-0.02-51.4-0.02-10.2 0-20.4-0.01-30.5-0.02-6.79-0.01-13.6-0.01-20.4-0.01-3.87 0-7.75 0-11.6-0.01-4.16-0.01-8.31 0-12.5 0-1.22 0-2.44-0.01-3.69-0.01-1.1 0-2.2 0-3.33 0.01h-2.89c-2.45 0.03-2.45 0.03-4.25 2.25-0.31 3.02-0.31 3.02-0.25 6.64 0 0.69-0.01 1.39-0.01 2.1 0 2.35 0 4.7 0.01 7.05 0 1.69 0 3.38-0.01 5.07 0 4.67 0 9.34 0.01 14 0.01 5.03 0 10 0 15.1-0.01 9.85 0 19.7 0.01 29.6 0.01 11.5 0.01 22.9 0.01 34.4 0 20.4 0.01 40.9 0.02 61.3 0.02 19.9 0.02 39.7 0.02 59.6v3.71 3.7c0 22.6 0.01 45.2 0.02 67.7v24c0 9.74 0.01 19.5 0.02 29.2v14.9c0 4.55 0 9.1 0.01 13.6v4.96c0 2.23 0 4.46 0.01 6.69v3.77c-0.07 2.82-0.07 2.82 1.13 4.88h1288v-412c-5.64-2.26-9.28-3.13-15.3-3.13-1.96 0-1.96 0-3.95-0.01-1.45 0-2.89 0-4.34 0.01-1.53 0-3.06-0.01-4.59-0.01h-12.6-10.7c-9.58 0-19.2 0-28.7 0.01h-21c-61.3 0.02-123 0.32-184 0.94-43.9 0.44-43.9 0.44-64.1-0.31-31.4-1.02-62.9-0.7-94.3-0.28z" fill="#033369"/>
<path transform="translate(152,624)" d="m0 0h1c0.02 3.95 0.04 7.9 0.05 11.8 0.01 2.01 0.03 4.02 0.04 6.02 0 1.26 0 2.51 0.01 3.81 0 1.16 0.01 2.32 0.01 3.52-0.11 2.8-0.11 2.8-1.11 4.8-0.1 1.46-0.13 2.92-0.12 4.38-0.01 0.77-0.01 1.54-0.01 2.33 0.04 2.21 0.04 2.21 0.63 3.97 0.7 3.25 0.64 6.47 0.63 9.78 0 0.73 0.01 1.46 0.01 2.22 0 2.37-0.01 4.75-0.02 7.13v2.44c-0.01 13.3-0.35 26.5-1.12 39.8l-2-4-1 5h2l1 7c-1.49 0.5-1.49 0.5-3 1l-1 5h-1c-0.02-0.59-0.04-1.18-0.06-1.79-0.1-2.67-0.21-5.35-0.32-8.02-0.03-0.93-0.06-1.86-0.09-2.82-0.04-0.89-0.08-1.78-0.12-2.7-0.04-1.24-0.04-1.24-0.09-2.49-0.2-2.47-0.2-2.47-2.32-5.18v15h1c0.08 1.57 0.08 1.57 0.17 3.18 0.2 3.89 0.42 7.78 0.63 11.7 0.09 1.69 0.18 3.37 0.27 5.06 0.13 2.41 0.26 4.83 0.39 7.25 0.04 0.75 0.08 1.51 0.12 2.29 0.16 3.91 0.16 3.91 1.42 7.56h2c0.91-2.73 1.18-4.62 1.32-7.45 0.04-0.85 0.08-1.69 0.12-2.57 0.06-1.32 0.06-1.32 0.12-2.67 0.05-0.89 0.09-1.78 0.13-2.7 0.11-2.2 0.21-4.41 0.31-6.61h1v106h-1c-0.02-0.55-0.04-1.11-0.06-1.68-0.1-2.52-0.21-5.05-0.32-7.57-0.04-1.31-0.04-1.31-0.09-2.64-0.04-0.85-0.08-1.69-0.12-2.56-0.04-1.17-0.04-1.17-0.09-2.35-0.35-2.42-1.21-4.04-2.32-6.2-0.2-3.23-0.2-3.23-0.12-6.75 0.01-1.17 0.03-2.34 0.05-3.55 0.02-0.89 0.05-1.78 0.07-2.7l-2-1-2 54h-1c-0.05 11.4-0.08 22.8-0.1 34.2-0.01 5.3-0.03 10.6-0.05 15.9-0.02 5.11-0.03 10.2-0.04 15.3 0 1.95-0.01 3.9-0.02 5.85-0.02 2.73-0.02 5.46-0.02 8.19 0 0.81-0.01 1.61-0.02 2.45 0.02 3.83 0.07 6.83 2.25 10.1l4-4c2.39 3.59 3.13 6.02 3.1 10.2-0.01 0.8-0.01 1.61-0.01 2.43-0.01 0.84-0.02 1.67-0.03 2.53 0 0.84-0.01 1.69-0.01 2.56-0.01 2.08-0.03 4.17-0.05 6.25-2.84-2.63-3.51-4.28-4.12-8.12-0.32-3.24-0.32-3.24-1.88-5.88-0.2 3.04-0.38 6.08-0.56 9.12-0.06 0.86-0.11 1.72-0.17 2.6-0.27 4.6-0.28 8.74 0.73 13.3l4-3 1 2-1 2h2l2-6h1v18l1287-1v-71l1-27h1l1 30c1.28-1.05 1.28-1.05 1.08-3.44-0.03-1.62-0.03-1.62-0.05-3.27-0.02-1.21-0.03-2.43-0.04-3.68-0.02-1.31-0.04-2.63-0.05-3.99-0.13-14.6 0.72-29 2.06-43.6h1l1 7c1.48-2.96 1.35-5.84 1.56-9.12 0.09-1.29 0.17-2.57 0.26-3.89 0.09-1.48 0.09-1.48 0.18-2.99h1c0.04 0.86 0.04 0.86 0.08 1.73 0.11 2.57 0.23 5.14 0.36 7.71 0.04 0.9 0.08 1.79 0.12 2.72 0.04 0.85 0.08 1.71 0.12 2.59 0.04 0.79 0.08 1.58 0.11 2.39 0.02 1.87 0.02 1.87 1.21 2.86-0.07 4.57-0.48 9.13-0.81 13.7-0.09 1.28-0.17 2.56-0.25 3.88-0.09 1.24-0.18 2.48-0.27 3.75-0.12 1.71-0.12 1.71-0.24 3.44-0.44 3.3-1.37 6.1-2.43 9.24v4l1-6h1c0.99 3.63 1.98 7.26 3 11h1c0.17 4 0.33 8 0.48 12 0.06 1.35 0.11 2.71 0.17 4.07 0.08 1.97 0.16 3.93 0.23 5.89 0.07 1.77 0.07 1.77 0.14 3.57-0.02 3.46-0.02 3.46-0.52 6.42-0.79 5.34-0.62 10.7-0.6 16.1 0 1.14 0.01 2.29 0.01 3.47 0 3.63 0.01 7.27 0.03 10.9 0 2.47 0.01 4.94 0.01 7.42 0.01 6.04 0.03 12.1 0.05 18.1-40.2 0.04-80.4 0.08-121 0.12-0.78 0-1.57 0.01-2.38 0.01l-253 0.24c-1.87 0-3.74 0-5.61 0.01-39.3 0.03-78.6 0.07-118 0.1-19.7 0.02-39.5 0.04-59.2 0.05-2.97 0.01-5.95 0.01-8.93 0.01-45.9 0.04-91.7 0.09-138 0.13-0.99 0-1.97 0.01-2.99 0.01-15.9 0.01-31.8 0.03-47.7 0.05-45.8 0.04-91.6 0.09-137 0.13h-2.85l-62 0.06c-8.31 0-16.6 0.01-24.9 0.02h-2.75c-29.4 0.02-58.7 0.06-88 0.09-29.5 0.03-59.1 0.06-88.6 0.08-4.08 0-8.16 0.01-12.2 0.01h-2.42c-12.7 0.01-25.4 0.03-38.1 0.04-12.5 0.02-24.9 0.03-37.4 0.04-6.67 0-13.3 0-20 0.02-6.06 0.01-12.1 0.01-18.2 0.01-2.19 0-4.38 0-6.57 0.01-2.95 0.01-5.9 0.01-8.86 0-0.85 0.01-1.71 0.01-2.6 0.02-3.92-0.02-5.86-0.04-9.2-2.26-0.37-2.74-0.37-2.74-0.37-6.32 0-0.66-0.01-1.32-0.01-2-0.01-2.23 0.01-4.46 0.02-6.69 0-1.6 0-3.21-0.01-4.82-0.01-4.43 0.01-8.86 0.02-13.3 0.01-4.77 0.01-9.54 0.01-14.3 0-8.28 0.01-16.6 0.02-24.8 0.03-12 0.04-23.9 0.04-35.9 0.01-19.4 0.03-38.8 0.05-58.2 0.03-18.8 0.05-37.7 0.07-56.6v-3.52c0-5.83 0.01-11.6 0.01-17.5 0.03-48.4 0.08-96.7 0.15-145 0.99-0.33 1.98-0.66 3-1 1.21-2 1.21-2 2-4l2 8h2v-3h3v-7z" fill="#033369"/>
<path transform="translate(953,697)" d="m0 0c2.96-0.37 2.96-0.37 6.82-0.36h2.13c2.34-0.01 4.69 0.01 7.03 0.03 1.64 0 3.28 0.01 4.93 0.01 3.46 0 6.93 0.02 10.4 0.04 4.37 0.03 8.74 0.04 13.1 0.04 74.6 0.09 74.6 0.09 95.3 18.2 12 12.8 15.6 30.6 15.2 47.5-0.63 18.3-2.37 34.4-15.5 48.4-19.6 17.1-44.8 16.4-69.2 16.2-3.59-0.03-7.19-0.05-10.8-0.07-2.23-0.01-4.45-0.03-6.67-0.05-1-0.01-2-0.02-3.02-0.02-0.88-0.01-1.76-0.02-2.66-0.03-2.18-0.03-2.18-0.03-4.12 1.11 0.01 0.75 0.01 1.5 0.02 2.28 0.09 15.9-0.05 31.8-0.66 47.7-0.26 6.68-0.43 13.3-0.36 20-3.3 1.65-6.99 1.18-10.6 1.2-1.28 0.01-1.28 0.01-2.59 0.02-1.82 0.01-3.63 0.02-5.44 0.02-2.77 0.01-5.55 0.04-8.32 0.07-1.76 0.01-3.52 0.01-5.28 0.02-0.83 0.01-1.66 0.02-2.52 0.04-5.66-0.03-5.66-0.03-7.95-1.41-1.99-3.05-1.69-6.21-1.65-9.74-0.01-0.8-0.01-1.6-0.02-2.43-0.01-2.69 0.01-5.38 0.02-8.08 0-1.92-0.01-3.85-0.01-5.77-0.01-5.24 0-10.5 0.01-15.7 0.01-5.48 0.01-11 0.01-16.4-0.01-9.2 0.01-18.4 0.02-27.6 0.02-10.6 0.03-21.3 0.02-31.9 0-10.2 0-20.4 0.01-30.7 0.01-4.36 0.01-8.72 0.01-13.1-0.01-5.12 0-10.2 0.02-15.4v-5.66c0-2.56 0.01-5.13 0.02-7.7 0-0.75-0.01-1.5-0.01-2.28 0.03-3.72 0.15-5.32 2.27-8.5z" fill="#003A6C"/>
<path transform="translate(1245,737)" d="m0 0c1.95 2.92 1.95 2.92 3.69 6.19 0.58 1.06 1.16 2.13 1.76 3.23 3.73 8.61 3.78 16.7 3.61 26l-0.09 6.99c-0.02 1.03-0.03 2.05-0.05 3.1-0.09 2.47-0.09 2.47 1.08 4.47 0.08 2.02 0.1 4.03 0.08 6.05 0 1.27-0.01 2.55-0.02 3.86 0 0.68-0.01 1.36-0.02 2.06-0.01 2.14-0.02 4.29-0.03 6.43-0.03 6.08-0.06 12.2-0.11 18.3-0.02 3.72-0.04 7.45-0.05 11.2-0.01 1.42-0.02 2.83-0.03 4.24-0.67 12.9-0.67 12.9 4.18 24.2 0.66 0.56 1.32 1.12 2 1.69 1.59 2.42 2.11 3.37 1.62 6.25-0.2 0.58-0.41 1.15-0.62 1.75-7.19 1.17-14.4 1.15-21.6 1.13-2.13-0.01-4.26 0-6.39 0.01-1.36 0-2.73-0.01-4.09-0.01h-3.72c-2.61-0.11-4.72-0.25-7.17-1.13-2.9-3.83-4.6-8.17-4-13-3.21 0.6-5.1 1.64-7.62 3.69-15.1 11.6-30.5 15.8-49.4 14.3-10.9-1.87-25.1-7.86-31.8-17-7.26-12.2-9.38-23.9-7.17-38 3.08-11.9 9.47-22.2 20-28.9 13.6-7.33 28-10.2 43.3-11.4 5.84-0.48 11.5-1.27 17.2-2.54 0.69-0.14 1.38-0.28 2.08-0.43 4.75-1.14 7.44-2.91 10.4-6.76 1.34-4.97 0.56-9.01-1.94-13.4-3.88-3.25-7.16-4.5-12.1-5.56-0.83-0.18-1.65-0.36-2.5-0.54-8.24-1.25-18.4 0.09-25.4 4.83-2.95 3.27-4.39 7.64-5.78 11.8-1.91 2.89-4 3.06-7.29 3.95-4.66 0.41-9.32 0.32-14 0.31-1.89 0.03-1.89 0.03-3.81 0.05h-3.69c-1.1 0.01-2.21 0.01-3.34 0.01-3.59-0.42-6.04-1.59-9.16-3.37 2.53-16.3 7.96-29.5 21.5-39.9 26.6-17.3 76.8-16.2 100 5.88z" fill="#003A6C"/>
<path transform="translate(1311,721)" d="m0 0c0.29 1.3 0.29 1.3 0.59 2.62 2.39 10 5.39 19.8 8.68 29.6 1.86 5.64 3.25 10.8 3.73 16.8h2v3h2c0.12-1.15 0.24-2.29 0.36-3.48 0.56-4.44 1.64-8.61 2.89-12.9 0.45-1.57 0.9-3.15 1.35-4.73 0.23-0.8 0.46-1.6 0.7-2.43 1.15-4.04 2.27-8.1 3.39-12.2 1.41-5.11 2.85-10.2 4.31-15.3 3.47-0.69 6.73-1.05 10.2-1 3.56 0.28 3.56 0.28 5.75-1 1.89-0.02 3.78 0.04 5.66 0.12 1.13 0.05 2.25 0.1 3.4 0.15 1.77 0.08 1.77 0.08 3.56 0.17 1.19 0.05 2.37 0.1 3.59 0.16 2.93 0.13 5.86 0.26 8.79 0.4 1.05 4.53 0.66 7.35-0.56 11.9-0.18 0.67-0.36 1.35-0.55 2.04-0.4 1.52-0.8 3.03-1.21 4.54-0.75 2.79-1.47 5.59-2.18 8.39l-1.56 6.09c-0.25 0.96-0.49 1.91-0.74 2.9-1.13 4.32-2.3 8.57-3.76 12.8-1.26 3.67-2.14 7.34-2.94 11.1-0.84 3.75-1.97 7.42-3.06 11.1-3.38 11.6-6.34 23.2-9.28 35-1.64 6.47-3.31 12.9-5.51 19.2-1.2 3.67-1.95 7.46-2.77 11.2-3.15 13.8-7.56 27.3-11.9 40.8-13.7 0.88-27.3 1.13-41 1-1.39-4.46-0.17-7.96 1.09-12.3 0.46-1.66 0.92-3.33 1.38-5 0.73-2.61 1.46-5.23 2.2-7.83 3.59-12.7 6.58-23.5 1.71-36.3-0.57-1.57-1.12-3.14-1.68-4.72-0.29-0.8-0.57-1.6-0.87-2.43-1.34-3.89-2.49-7.83-3.64-11.8-2.81-9.53-5.86-19-8.94-28.4-1.87-5.73-3.64-11.5-5.27-17.3-1.5-5.32-3.15-10.6-4.92-15.8-1.83-5.38-3.59-10.8-5.32-16.2-0.41-1.29-0.84-2.59-1.27-3.89-0.62-1.9-1.23-3.81-1.84-5.72-0.36-1.12-0.72-2.23-1.09-3.38-0.59-3.2-0.35-4.29 1.46-6.93 14.4-1.1 28.6-0.82 43 0z" fill="#003A6C"/>
<path transform="translate(813 766)" d="m0 0c11.2 8.5 17.3 19.1 19.9 32.9 1.95 18.1 2.09 37.8-9.72 52.7-0.62 0.71-1.23 1.41-1.87 2.14-0.61 0.73-1.21 1.45-1.84 2.2-6.33 7-14.8 11.3-24.2 11.9-17.3 0.72-27.5-2.22-40.9-13.1 0.18 0.9 0.35 1.8 0.53 2.72 0.79 5.56 0.32 11.1 0.03 16.7-0.05 1.11-0.1 2.22-0.15 3.37-0.13 2.73-0.27 5.46-0.41 8.19-5.72 0.81-10.3 1-16 0-1-1-1-1-1.12-3.03v-2.72-3.12c0-1.13 0-2.27 0.01-3.44v-3.61c0-3.27 0-6.54 0.01-9.82 0.01-3.41 0.01-6.83 0.01-10.2 0-6.47 0.01-12.9 0.02-19.4 0.01-7.37 0.02-14.7 0.02-22.1 0.01-15.2 0.03-30.3 0.05-45.5 3.23-1.07 5.68-1.17 9.06-1.19 1.07-0.01 2.13-0.03 3.23-0.04 2.71 0.23 2.71 0.23 4.71 2.23 0.42 2.38 0.42 2.38 0.63 5.13 0.07 0.91 0.15 1.82 0.22 2.75 0.05 0.7 0.1 1.4 0.15 2.12h2v-2c16.3-13.9 36.9-18.1 55.7-5.73z" fill="#FEFEFE"/>
<path transform="translate(520 767)" d="m0 0c2.43 1.79 2.43 1.79 4.12 3.38v2c1 0.33 1.99 0.65 3 1 5.73 6.11 9.84 13.9 12 22 0.32 1.12 0.32 1.12 0.64 2.26 1.59 7.07 1.3 13.7 0.68 20.9-0.12 1.38-0.12 1.38-0.24 2.78-0.87 8.59-3.06 16.4-6.76 24.2-0.44 0.93-0.88 1.86-1.33 2.82-0.32 0.68-0.65 1.36-0.99 2.06h-2c-0.27 1.05-0.27 1.05-0.56 2.12-3.4 6.8-10.8 11.1-17.7 13.8-14.4 4.36-31.9 5.67-45.6-0.93-4.99-3.09-9.08-6.73-13.2-10.9-0.94-0.85-1.89-1.7-2.87-2.57-10.1-11.6-11.1-28.5-10.3-43.2 1.28-16.6 9.19-30.6 21.6-41.4 2.42-1.78 4.54-2.9 7.34-3.98 0.79-0.31 1.58-0.62 2.39-0.95 16.3-5.41 35.1-5.06 49.7 4.7z" fill="#FEFEFE"/>
<path transform="translate(634 764)" d="m0 0c3.59 2.9 6.79 6.36 8.86 10.5 0.62-0.68 1.24-1.36 1.87-2.06 8.55-8.38 18.4-13.6 30.6-14.1 9.88 0.55 18.5 2.17 25.8 9.16 6.42 7.18 9.07 14.4 8.98 24.1v2.39c0 2.6-0.02 5.2-0.04 7.79v5.43c-0.01 4.74-0.03 9.49-0.05 14.2-0.02 4.85-0.03 9.69-0.04 14.5-0.02 9.5-0.06 19-0.1 28.5-6.1 0.22-11.2 0.01-17-2-0.82-9.55-1.08-19-1.03-28.6 0.01-1.12 0.01-2.24 0.02-3.39 0.03-4.66 0.06-9.32 0.11-14 0.03-3.44 0.04-6.89 0.06-10.3 0.01-1.04 0.03-2.08 0.04-3.15 0.03-9.08-0.79-16.1-6.2-23.5v-2c-1.18-0.22-1.18-0.22-2.38-0.44-2.62-0.56-2.62-0.56-4.62-1.56-9.07-0.96-17 0.79-24.4 6.25-9.3 9.75-7.77 22.8-7.68 35.4 0 1.27 0 2.54 0.01 3.84 0.01 4.01 0.03 8.02 0.05 12 0.03 5.32 0.05 10.6 0.06 15.9 0.01 1.84 0.01 1.84 0.03 3.71 0 1.13 0 2.25 0.01 3.41 0 1 0.01 1.99 0.01 3.01-0.11 2.37-0.11 2.37-1.11 4.37-2.79 0.08-5.58 0.14-8.38 0.19-0.79 0.02-1.58 0.05-2.4 0.07-2.08 0.03-4.15-0.11-6.22-0.26-2.33-3.49-2.24-4.79-2.2-8.9 0.01-1.22 0.02-2.43 0.02-3.69 0.02-1.31 0.04-2.63 0.05-3.99 0.01-1.38 0.02-2.75 0.03-4.13 0.02-5.1 0.07-10.2 0.12-15.3 0.04-4.3 0.07-8.59 0.09-12.9 0.01-2 0.04-3.99 0.06-5.99 0.44-15.8 0.44-15.8-5.17-30.1-5.23-3.79-10.8-3.75-17-3-7.76 2-14.3 5.6-18.5 12.6-2.86 5.77-3.92 10.1-3.46 16.4l-1 3c-0.08 1.68-0.11 3.37-0.1 5.05 0.01 1.54 0.01 1.54 0.01 3.12 0.01 1.1 0.02 2.21 0.03 3.36 0 1.14 0 2.28 0.01 3.45 0.01 4.89 0.04 9.78 0.07 14.7 0.02 3.56 0.03 7.13 0.04 10.7 0.01 1.11 0.02 2.21 0.03 3.36 0 1.54 0 1.54 0.01 3.12 0 1.36 0 1.36 0.01 2.75-0.1 2.29-0.46 4.24-1.11 6.43-11 1.4-11 1.4-16 1-2.66-3.99-2.27-7.47-2.24-12.1-0.01-0.93-0.01-1.86-0.01-2.82 0-3.09 0.01-6.17 0.02-9.26v-6.42c0-4.49 0.01-8.98 0.02-13.5 0.02-5.76 0.02-11.5 0.02-17.3 0-4.42 0.01-8.84 0.02-13.3v-6.38c0-2.96 0.01-5.93 0.02-8.89v-2.68c0.02-3.39 0.07-6.19 1.15-9.43 2.48-0.03 4.96-0.05 7.44-0.06 0.7-0.01 1.41-0.02 2.14-0.03 1.81-0.01 3.61 0.04 5.42 0.09 1 1 1 1 1.1 3.29-0.01 0.91-0.03 1.83-0.04 2.77-0.01 0.92-0.02 1.84-0.03 2.79-0.01 0.71-0.02 1.42-0.03 2.15 3.49-0.58 5.12-1.8 7.62-4.25 12.6-11.3 32-15 46.5-5.25z" fill="#FEFEFE"/>
<path transform="translate(275 723)" d="m0 0c0.67-0 1.34-0.01 2.03-0.01 3.54-0.01 7.09-0.02 10.6-0.03 2.9 0 5.8-0.02 8.7-0.04 43.6-0.33 43.6-0.33 56.7 10.8 1.73 2.1 2.97 3.92 4 6.43h2c0.82 1.52 1.63 3.04 2.44 4.57 0.45 0.84 0.9 1.69 1.37 2.56 4.42 10.7 3.18 24.4-0.55 35-3.63 8.27-10.6 16.2-19.1 19.7-8.85 2.68-17.6 3.48-26.8 3.56-1.6 0.03-1.6 0.03-3.22 0.05-3.36 0.06-6.71 0.1-10.1 0.14-3.38 0.04-6.76 0.09-10.1 0.14-2.09 0.03-4.19 0.06-6.28 0.08-0.95 0.01-1.89 0.03-2.86 0.04-0.83 0.01-1.66 0.02-2.52 0.03-2.2 0.14-4.14 0.53-6.26 1.14-0.01 0.55-0.02 1.1-0.03 1.67-0.11 5.77-0.23 11.6-0.34 17.3-0.05 2.15-0.09 4.3-0.13 6.44-0.41 22-0.41 22-1.5 32.6h-18c-1.15-2.3-1.16-3.68-1.21-6.24-0.03-1.33-0.03-1.33-0.06-2.69-0.01-0.97-0.03-1.94-0.05-2.94-0.03-1.53-0.03-1.53-0.06-3.08-0.07-3.35-0.13-6.7-0.18-10-0.03-1.14-0.05-2.28-0.07-3.45-0.29-15.9-0.48-31.7-0.5-47.6 0-0.84 0-1.67-0.01-2.54-0.02-11.5 0.39-22.9 1.14-34.4 2.23-0.18 4.46-0.37 6.69-0.56 1.24-0.1 2.48-0.21 3.76-0.32 3.11-0.1 5.56 0.11 8.55 0.88 0.92 7.18 1.08 14.2 0.96 21.4-0.06 4.97 0.16 9.71 1.04 14.6 3.04 1.53 6.22 1.15 9.56 1.14h2.26c1.58 0 3.16 0 4.75-0.01 2.42 0 4.84 0 7.26 0.01h4.61 2.2c3.8 0.05 3.8 0.05 7.36-1.14 1.83 0.04 3.67 0.1 5.5 0.19 6.29 0.07 10.9-1.42 16.5-4.19 0.71-0.29 1.41-0.58 2.14-0.89 2.3-1.37 2.93-2.57 4.05-4.98 0.32-0.68 0.64-1.36 0.98-2.06 3.16-7.88 2.36-16-0.24-23.9-1.16-2.66-2.71-4.3-4.93-6.14v-2c-11.4-4.14-23.8-4.3-35.8-4.38-1.34-0.01-2.68-0.03-4.03-0.05-3.48-0.04-6.96-0.08-10.4-0.11-4.95-0.05-9.9-0.1-14.8-0.16-2.62-0.03-5.25-0.06-7.87-0.08-1.18-0.02-2.35-0.03-3.56-0.04-1.03-0.01-2.07-0.02-3.14-0.03-2.33-0.15-2.33-0.15-3.33-1.15-0.08-2.35-0.09-4.71-0.06-7.06 0-1.29 0.01-2.58 0.02-3.91 0.01-1 0.03-2 0.04-3.03 6.94-1.28 13.9-1.18 20.9-1.2z" fill="#FEFEFE"/>
<path transform="translate(1457,588)" d="m0 0 1-2c1.89 1.89 1.13 5.18 1.13 7.69v2.12c0.01 2.32 0.01 4.64 0 6.97 0 1.61 0 3.21 0.01 4.82 0 3.38 0 6.75-0.01 10.1-0.01 4.33 0 8.66 0 13 0.01 3.33 0.01 6.65 0 9.97 0 1.6 0 3.2 0.01 4.79 0 2.24-0.01 4.47-0.01 6.7v3.85c-0.13 2.97-0.13 2.97-1.13 4.97-0.1 1.86-0.13 3.73-0.13 5.59 0 1.12-0.01 2.23-0.01 3.37 0.01 1.75 0.01 1.75 0.02 3.54-0.01 1.17-0.01 2.33-0.02 3.54 0.01 1.66 0.01 1.66 0.01 3.37v3.1c-0.04 2.49-0.04 2.49 1.13 4.49 0.1 1.35 0.13 2.7 0.13 4.05 0.01 0.85 0.01 1.7 0.01 2.58v2.85c0 0.99 0.01 1.99 0.01 3.01 0.01 3.36 0.01 6.72 0.01 10.1 0.01 2.4 0.01 4.8 0.02 7.2 0.01 6.52 0.02 13 0.02 19.6 0 4.08 0.01 8.15 0.01 12.2 0.01 11.3 0.02 22.6 0.03 33.8v2.19 2.19 4.4 2.2c0 11.8 0.02 23.6 0.05 35.4 0.02 12.1 0.03 24.2 0.03 36.3 0 6.8 0.01 13.6 0.03 20.4 0.01 6.39 0.02 12.8 0.01 19.2 0 2.35 0 4.7 0.01 7.05 0.01 3.2 0.01 6.4 0 9.6 0.01 0.94 0.01 1.87 0.02 2.84-0.05 6.3-0.05 6.3-1.91 9.5-0.49 0.46-0.98 0.92-1.48 1.39l-2-9-3 2c0.88-7.62 0.88-7.62 2-11 0.54-4.59 0.84-9.2 1.19-13.8 0.11-1.27 0.21-2.55 0.32-3.86 0.1-1.23 0.19-2.46 0.28-3.72 0.09-1.13 0.18-2.25 0.27-3.41-0.06-3.44-0.81-6.01-2.06-9.2l-1 10h-1l-1-8c-1.76 13.4-2.18 26.5-1.93 40 0.02 1.24 0.04 2.48 0.05 3.76 0.03 1.11 0.05 2.22 0.08 3.36-0.2 2.86-0.71 4.47-2.2 6.89l-2-6h-1v-2.18c0.05-42.6 0.08-85.1 0.1-128 0-5.1 0.01-10.2 0.01-15.3v-3.08c0.01-16.5 0.03-33 0.04-49.4 0.02-16.9 0.03-33.8 0.04-50.7 0-10.4 0.01-20.9 0.03-31.3 0.01-7.14 0.01-14.3 0.01-21.4 0-4.13 0-8.26 0.01-12.4 0.01-3.78 0.01-7.55 0-11.3 0-2.02 0.01-4.04 0.02-6.06-0.01-1.19-0.01-2.38-0.01-3.6v-3.13c-0.01-2.61-0.01-2.61-2.25-4.43l4-1v-3c4.54-2.21 7.48-2.26 12 0z" fill="#003A6C"/>
<path transform="translate(503 775)" d="m0 0c5.19 2.42 7.95 5.11 10.7 10.1l2 1c6.99 16.6 7.74 36.1 1 53-3.59 7.44-8.35 11.9-16.1 14.8-8.6 2.38-18.1 1.5-25.9-2.78-0.73-0.38-1.46-0.76-2.21-1.14-7.84-4.52-10.9-11-14.1-19.2-2.81-14.8-2.03-31.2 5.93-44.4 3.31-4.67 7.42-7.5 12.4-10.2 0.62-0.35 1.23-0.69 1.87-1.05 6.75-3.01 17.5-1.94 24.5-0.04z" fill="#003A6C"/>
<path transform="translate(801,778)" d="m0 0v2c0.61 0.25 1.21 0.51 1.84 0.77 3.66 2.09 5.13 5.64 7.16 9.23 0.56 0.89 1.11 1.77 1.69 2.69 4.97 12.6 5 29.5 0.24 42.2-4.13 8.64-8.99 14.3-17.9 18.2-10.3 2.58-18.2 1.02-27.2-4.29-7.15-4.79-10.5-11.2-12.4-19.5-2.48-14-1.17-30.5 6.04-42.9 10.2-14.3 25.7-13.4 40.6-8.31z" fill="#003A6C"/>
<path transform="translate(1012 733)" d="m0 0c0.74-0.01 1.48-0.01 2.24-0.02 1.55-0.01 3.11-0.01 4.66-0.02 2.35-0.01 4.69-0.04 7.03-0.07 11.2-0.08 22.3 0.27 31 8.31 6.12 6.62 6.36 12.7 6.37 21.3 0.03 1 0.05 2.01 0.08 3.05 0.03 7.52-1.23 12.9-6.2 18.7-8.89 7.1-18 7.13-29 7.14-0.89 0-1.78 0.01-2.7 0.01-1.87 0.01-3.74 0.01-5.61 0.01-2.86 0-5.73 0.02-8.6 0.04h-5.46c-0.86 0.01-1.72 0.02-2.6 0.03-6.02-0.03-6.02-0.03-8.25-2.26-0.25-2.1-0.25-2.1-0.24-4.73-0.01-0.99-0.01-1.97-0.01-2.99 0.01-1.6 0.01-1.6 0.02-3.23v-3.32c0-2.32 0.01-4.64 0.02-6.97 0.02-3.54 0.02-7.09 0.02-10.6 0.01-2.25 0.01-4.51 0.02-6.76v-3.22c0.01-1.49 0.01-1.49 0.02-3.01 0.01-0.87 0.01-1.74 0.02-2.64 0.13-2.58 0.56-4.97 1.13-7.49 5.37-0.75 10.6-1.17 16-1.2z" fill="#FEFEFE"/>
<path transform="translate(155,587)" d="m0 0c-0.99 0.5-0.99 0.5-2 1l4 3c-0.99 0.5-0.99 0.5-2 1 0.07 0.54 0.14 1.08 0.21 1.63 0.94 8.05 0.93 16.1 0.92 24.2 0.01 1.6 0.01 3.19 0.01 4.79 0.01 4.36 0.01 8.72 0.01 13.1 0 4.71 0 9.42 0.01 14.1 0 9.22 0.01 18.4 0.01 27.7v22.5c0.01 21.3 0.02 42.5 0.02 63.8v3.47 3.48c-0.01 18.6 0 37.2 0.02 55.8 0.01 19.1 0.02 38.2 0.02 57.3 0 10.7 0 21.4 0.01 32.2 0.01 9.13 0.01 18.2 0.01 27.4-0.01 4.65-0.01 9.31 0 14 0.01 4.27 0.01 8.53 0 12.8 0 1.54 0 3.08 0.01 4.62 0.02 7.34 0.03 14.2-2.26 21.3l-1-2h-2c-0.5-1.49-0.5-1.49-1-3l-4 3c-0.88-6.49-1-12.5-0.56-19.1 0.05-0.87 0.1-1.73 0.16-2.63 0.12-2.1 0.26-4.21 0.4-6.31 2.84 2.63 3.51 4.28 4.12 8.12 0.32 3.24 0.32 3.24 1.88 5.88 0.05-2.56 0.09-5.12 0.12-7.69 0.02-0.72 0.04-1.44 0.06-2.18 0.03-4.18-0.3-7.38-2.18-11.1-1.45 1.24-1.45 1.24-2.94 2.5-3.06 2.5-3.06 2.5-4.06 2.5v-135h1l1 9 1-26c4.47 5.59 4.47 5.59 4.12 11.6-0.38 5.02-0.38 5.02 1.88 9.38v-64h-6c-0.5-10.4-0.5-10.4-1-21h-2c-0.17-24 0.33-48 1-72h1c0.03 1.23 0.05 2.45 0.08 3.72 0.09 4.54 0.19 9.09 0.29 13.6 0.05 1.97 0.09 3.94 0.13 5.91 0.06 2.82 0.12 5.65 0.18 8.48 0.02 0.88 0.04 1.76 0.05 2.67 0.02 0.82 0.04 1.64 0.06 2.49 0.02 0.72 0.04 1.44 0.05 2.18 0.1 2.14 0.1 2.14 1.16 4.92 0.23 2.57 0.42 5.12 0.56 7.69 0.05 0.7 0.09 1.4 0.13 2.12 0.11 1.73 0.21 3.46 0.31 5.19l2-3 1 1v-6h-2v-8l2 1c0.8-11.3 1.16-22.6 1.13-33.9-0.01-2.49 0-4.99 0.01-7.48 0-1.6-0.01-3.2-0.01-4.8 0-0.74 0.01-1.48 0.01-2.24-0.02-3.13-0.15-5.57-1.14-8.55-0.09-1.48-0.13-2.96-0.12-4.44-0.01-0.76-0.01-1.52-0.01-2.31 0.13-2.25 0.13-2.25 0.63-4.11 0.54-2.3 0.61-4.32 0.6-6.69-0.01-0.84-0.01-1.69-0.01-2.56-0.01-0.87-0.02-1.74-0.03-2.64 0-0.89-0.01-1.78-0.01-2.69-0.01-2.19-0.03-4.37-0.05-6.56h-3v3c-1.49 0.5-1.49 0.5-3 1l-1-5-2 3v-3h-3c-0.11-13-0.17-26 1-39 0.99 0.33 1.98 0.66 3 1l2-2v-3c3.07-1.53 5.7-0.55 9 0z" fill="#00396C"/>
<path transform="translate(859,734)" d="m0 0c2.65-0.03 5.29-0.05 7.94-0.06 0.75-0.01 1.51-0.02 2.28-0.03 1.93-0.01 3.86 0.04 5.78 0.09 1.77 1.77 1.23 4.38 1.32 6.79 0.04 1.16 0.08 2.33 0.12 3.54 0.04 1.23 0.08 2.46 0.12 3.73 0.05 1.24 0.09 2.47 0.13 3.75 0.11 3.06 0.21 6.13 0.31 9.19 4.4 0.94 8.31 1.01 12.8 0.84 2.21 0.16 2.21 0.16 4.21 2.16 0.28 3.68 0.09 7.3 0 11-8.41 0.5-8.41 0.5-17 1-0.03 6.41-0.04 12.8-0.05 19.2-0.01 2.18-0.02 4.35-0.03 6.52-0.02 7.41 0 14.8 0.08 22.2 0.01 1.09 0.01 2.18 0.02 3.3 0.03 3.18 0.1 6.36 0.17 9.54 0.01 1.45 0.01 1.45 0.02 2.92 0.11 5.47 0.11 5.47 3.22 9.81 4.08 2.27 6.95 2.7 11.6 3.05 0.66 0.13 1.32 0.25 2 0.38 1.3 2.6 0.93 4.19 0.62 7.06-0.09 0.9-0.18 1.8-0.27 2.73-0.35 2.21-0.35 2.21-1.35 3.21-11 1.32-19.6 1.77-29.4-4-7.21-8.24-6.09-20.5-6.13-30.8l-0.06-4.8c-0.04-4.17-0.07-8.34-0.1-12.5-0.03-4.27-0.08-8.54-0.12-12.8-0.09-8.36-0.15-16.7-0.21-25.1-0.84-0.05-1.69-0.1-2.55-0.15-1.1-0.07-2.2-0.15-3.33-0.23-1.09-0.06-2.18-0.13-3.3-0.21-2.82-0.41-2.82-0.41-4.82-2.41 0.03-3.38 0.57-6.64 1-10l14-1c-0.01-1.69-0.02-3.37-0.04-5.11 0-2.21-0.01-4.43-0.02-6.64-0.01-1.11-0.02-2.22-0.03-3.37 0-1.07 0-2.14-0.01-3.24-0.01-1.48-0.01-1.48-0.01-2.98 0.1-2.39 0.43-4.38 1.11-6.66z" fill="#FEFEFE"/>
<path transform="translate(422 761)" d="m0 0c1.71 0.01 1.71 0.01 3.45 0.02 2.86 0.17 2.86 0.17 4.86 1.17v15c-1.98 0.27-3.96 0.53-6 0.81-8.69 1.37-16.2 3.15-22 10.2-4.34 7.54-6.07 14.5-6.2 23.2-0.02 1.2-0.04 2.4-0.06 3.64-0.02 1.28-0.04 2.56-0.05 3.88-0.02 1.34-0.05 2.67-0.07 4.01l-0.15 10.5c-0.05 3.58-0.11 7.16-0.16 10.7-0.11 7.01-0.21 14-0.31 21-2.62 0.05-5.25 0.09-7.87 0.12-0.75 0.02-1.5 0.04-2.26 0.05-1.96 0.02-3.91-0.07-5.87-0.17-2.67-2.67-2.24-4.67-2.26-8.3 0.01-1.33 0.01-1.33 0.02-2.68 0-0.93 0-1.86-0.01-2.82 0-3.08 0.01-6.17 0.02-9.26v-6.42c0-4.49 0.01-8.98 0.03-13.5 0.01-5.76 0.02-11.5 0.02-17.3 0-4.42 0-8.84 0.01-13.3 0-2.12 0-4.25 0.01-6.37 0-2.97 0.01-5.94 0.02-8.91v-2.66c0-0.82 0-1.63 0.01-2.46v-2.13c0.14-2.09 0.56-3.96 1.13-5.98 1.92-0.23 3.83-0.43 5.75-0.63 1.07-0.11 2.14-0.23 3.24-0.35 3.09-0.02 4.58 0.07 7.01 1.98 0.58 2.02 0.58 2.02 0.69 4.37 0.18 3.01 0.5 5.72 1.31 8.63 0.34-0.51 0.68-1.02 1.03-1.54 6.28-8.91 13.4-14.8 24.7-14.6z" fill="#FEFEFE"/>
<path transform="translate(969,634)" d="m0 0c4.02 3.83 4.51 7.74 4.82 13 0.07 2.03 0.07 2.03 1.18 3.95 0.33-1.05 0.65-2.1 0.99-3.18 0.44-1.37 0.88-2.75 1.32-4.13 0.22-0.69 0.43-1.38 0.65-2.09 2.17-6.7 2.17-6.7 5.04-8.6 3.69-0.19 3.69-0.19 7 0 0.67 1.79 1.34 3.58 2 5.38 0.37 0.99 0.74 1.99 1.12 3.02 0.88 2.6 0.88 2.6 0.88 4.6h2v8l2-1c-0.5-0.99-0.5-0.99-1-2-0.12-2.49-0.19-4.94-0.19-7.44-0.01-0.68-0.02-1.36-0.03-2.06-0.02-3.73 0.1-5.32 2.22-8.5 2.09-0.36 2.09-0.36 4.5-0.31 1.19 0 1.19 0 2.41 0.01 2.09 0.3 2.09 0.3 4.09 2.3 0.2 2.47 0.28 4.82 0.27 7.28v2.21c0 1.54 0 3.09-0.01 4.64-0.01 2.33 0 4.67 0.01 7 0.03 17.9 0.03 17.9-2.27 22.9-3.6 2.39-6.74 2.38-11 2-2.43-1.18-3.68-2.26-4.75-4.76-0.7-2.19-1.3-4.39-1.87-6.62-0.41-1.5-0.82-3.01-1.23-4.52-0.19-0.71-0.38-1.42-0.58-2.15-0.59-2.13-0.59-2.13-1.72-4.8-0.85-2.15-0.85-2.15-0.85-5.15h-2c-0.1 0.95-0.21 1.9-0.31 2.88-1.2 8.12-3.6 17.6-8.69 24.1-2.77 1.45-4.97 1.73-8 1-3.2-1.2-3.2-1.2-6-4-0.91-4.41-0.88-8.76-0.88-13.2-0.02-1.22-0.04-2.44-0.06-3.7-0.04-3.02-0.06-6.03-0.06-9.05-0.77-0.12-1.53-0.24-2.32-0.37-3.84-0.91-5.35-2.48-7.68-5.63-0.07-4.08 0.34-6.16 2.88-9.38 4.84-3.7 10.4-2.97 16.1-1.62z" fill="#043E6F"/>
<path transform="translate(1281,633)" d="m0 0c4.6 3.83 6.27 8.11 7 14 0.03 2 0.03 4 0 6 0.33-1.19 0.65-2.38 0.99-3.61 0.44-1.57 0.88-3.14 1.32-4.7 0.22-0.79 0.43-1.57 0.65-2.38 0.21-0.76 0.43-1.52 0.65-2.3 0.2-0.69 0.39-1.39 0.59-2.11 0.94-2.23 1.91-3.4 3.8-4.9 3-0.38 3-0.38 6 0 2.64 2.09 3.59 4.07 4.56 7.25 0.25 0.79 0.49 1.58 0.74 2.39 0.35 1.17 0.35 1.17 0.7 2.36 0.21 0.71 0.42 1.42 0.63 2.14 0.47 1.62 0.92 3.24 1.37 4.86h1c-0.02-1.04-0.05-2.07-0.07-3.14-0.02-1.37-0.04-2.74-0.05-4.11-0.02-0.68-0.04-1.36-0.06-2.07-0.03-3.74 0.1-6.5 2.18-9.68 6.05-0.2 6.05-0.2 8 0 2.39 2.39 2.25 2.89 2.26 6.14 0.01 0.86 0.01 1.71 0.02 2.59-0.01 0.93-0.01 1.85-0.01 2.8v2.87c0 2 0 4.01-0.01 6.01-0.01 3.08 0 6.15 0.01 9.23v5.83c0 0.92 0 1.85 0.01 2.8-0.01 0.85-0.01 1.71-0.02 2.59 0 0.75 0 1.5-0.01 2.28-0.25 1.86-0.25 1.86-2.25 3.86-2.21 0.59-2.21 0.59-4.81 0.94-1.28 0.2-1.28 0.2-2.58 0.4-2.61-0.34-2.61-0.34-5.23-2.24-3.07-4-4.27-7.86-5.63-12.7-0.26-0.85-0.51-1.7-0.77-2.58-1.08-3.6-2.09-7.21-2.98-10.9-0.17 0.61-0.34 1.21-0.52 1.84-2.65 9.16-6.09 17.7-10.5 26.2-8.93 0.45-8.93 0.45-13-3-1.36-4.08-1.15-8.25-1.12-12.5-0.01-0.76-0.01-1.52-0.02-2.3 0.01-3.57 0.18-6.77 1.14-10.2-0.89-0.25-1.77-0.5-2.69-0.75-3.53-1.33-5.68-2.54-8.31-5.25-1.06-2.88-1.06-2.88-1-6 4.02-7.74 9.62-9.52 18-8z" fill="#033D6F"/>
<path transform="translate(1125,635)" d="m0 0c3.97 3.33 5.83 6.12 6.31 11.3 0.05 3.46 0.11 6.93 0.12 10.4 0.01 2.23 0.06 4.45 0.11 6.68 0.01 1.42 0.01 2.85 0.02 4.27 0.01 1.29 0.03 2.58 0.04 3.91-0.75 4.32-2.21 5.75-5.6 8.44-5.09 1.7-10.5 1.19-15.8 1.19-2.11 0-4.21 0.02-6.31 0.03-1.34 0.01-2.68 0.01-4.02 0.01-1.22 0-2.44 0.01-3.69 0.01-2.99-0.23-4.65-0.67-7.16-2.24-0.44-19.6-0.44-19.6 2-26l3-3-8-3c1.71-4.98 4.03-8.56 8.31-11.7 9.26-4.52 21.6-5.83 30.7-0.31z" fill="#033D6F"/>
<path transform="translate(1213,804)" d="m0 0c1.44 4.99 0.81 9.73 0.31 14.8-0.06 0.87-0.13 1.73-0.2 2.62-0.72 7.5-2.81 14.2-8.61 19.3-8.62 6.93-18.2 7.69-28.8 7.68-6.43-0.76-10.5-3.56-14.7-8.43-1.78-5.26-2.06-11.9-0.28-17.1 2.57-4.8 6.08-7.96 11.1-10 7.11-2.09 14.2-3.68 21.5-5.04 4.83-1.03 9.45-2.52 14.1-4.13 2.61-0.67 2.61-0.67 5.61 0.33z" fill="#FEFEFE"/>
<path transform="translate(1171,634)" d="m0 0c3.34 2.73 4.7 5.89 5.3 10.1 0.49 5.28 0.64 10.6 0.7 15.9 0.75 0.12 1.49 0.24 2.26 0.37 3.79 0.87 6.43 2.62 9.74 4.63l-1-2c-0.27-4.64-0.23-9.29-0.25-13.9-0.02-1.3-0.04-2.6-0.06-3.94-0.01-1.87-0.01-1.87-0.02-3.77-0.01-1.15-0.02-2.29-0.03-3.47 0.36-2.88 0.36-2.88 1.76-4.75 3.04-2.14 5.99-1.42 9.6-1.13 2.4 2.4 2.26 2.95 2.29 6.22 0.01 0.87 0.03 1.74 0.04 2.64 0 0.94 0 1.88 0.01 2.85 0 0.97 0.01 1.94 0.02 2.93 0.01 2.05 0.01 4.1 0.01 6.14 0 3.14 0.04 6.28 0.08 9.41 0.01 1.99 0.01 3.98 0.01 5.96 0.02 0.94 0.03 1.88 0.04 2.85-0.04 6.47-0.04 6.47-2.31 9.1-3.73 1.54-7.41 1.58-11.2 0.13-3.07-1.89-4.97-4.58-7.22-7.35-1.82-1.92-3.36-2.86-5.78-3.88 0.23 0.54 0.45 1.07 0.69 1.62 0.46 3.51-0.89 5.42-2.69 8.38-4.05 2.7-7.24 2.54-12 2-3.56-1.38-6.77-2.83-9-6-0.93-3.66-1.24-6.41 0-10h2v-2c6.75-4 6.75-4 9-4-0.47-3.44-0.47-3.44-2-7-2.31-1.05-4.65-2.05-7-3-2.25-2.69-2.25-2.69-3-6 1.59-4.72 4.16-7.46 8.31-10.1 4.56-1.09 7.54-1.13 11.7 1.12z" fill="#013C6D"/>
<path transform="translate(1361,634)" d="m0 0c2.03 2.12 3.19 4.18 4 7-0.44 3.81-0.44 3.81-2 7-2.62 1.44-2.62 1.44-5 2l1 2h5c1.8 3.81 2.07 4.71 1 9-4.95 0.5-4.95 0.5-10 1-0.21 4.14-0.21 4.14 1 8 2.71 0.31 5.34 0.51 8.06 0.62 0.76 0.04 1.52 0.08 2.3 0.12 1.88 0.1 3.76 0.18 5.64 0.26-0.01-1.01-0.02-2.02-0.03-3.06-0.04-3.75-0.06-7.5-0.08-11.2-0.01-1.62-0.02-3.24-0.04-4.86-0.03-2.34-0.04-4.67-0.05-7-0.01-0.72-0.02-1.45-0.03-2.19 0-3.72 0.17-6.49 2.23-9.64 1.48-0.03 2.96-0.05 4.44-0.06 0.82-0.01 1.64-0.03 2.49-0.04 2.07 0.1 2.07 0.1 3.07 1.1 1.21 6.82 1.19 13.6 1.19 20.5 0 2.13 0.02 4.25 0.03 6.38 0.01 1.37 0.01 2.73 0.01 4.1 0 1.22 0.01 2.45 0.01 3.72-0.3 4.06-1.07 6.99-3.8 10-6.94 3.56-16.7 2.43-24.3 2.44-1.12 0.01-2.25 0.02-3.41 0.03-1.62 0.01-1.62 0.01-3.26 0.01-1.47 0.01-1.47 0.01-2.96 0.01-2.49-0.24-2.49-0.24-5.49-2.24-0.3-2.72-0.42-5.16-0.38-7.88-0.01-0.72-0.02-1.44-0.03-2.18 0.02-4.4 0.61-6.61 3.41-9.94-1.02-3.05-1.77-3.87-4-6-1.54-3.08-1.22-5.59-1-9 1.41-4.03 2.65-7.29 6-10 4.71-1.26 10.4-1.7 15 0z" fill="#033D6E"/>
<path transform="translate(1053 632)" d="m0 0c1.63 0.02 1.63 0.02 3.3 0.03 8.97 0.29 8.97 0.29 12.1 3.4 0.58 0.81 1.15 1.61 1.74 2.45-3.04 3.5-5.43 5.05-10 6-8.24-0.25-8.24-0.25-10-2-2.32-0.37-4.66-0.71-7-1v3c0.53-0.19 1.06-0.38 1.6-0.58 3.23-0.57 5.71 0.04 8.9 0.76 1.13 0.24 2.25 0.48 3.41 0.73 3.37 1.18 4.88 2.31 7.09 5.09 1.41 4.22 1.5 8.38 1.76 12.8 0.1 1.33 0.1 1.33 0.2 2.69 0.31 5.34 0.11 8.89-2.96 13.5-3.39 2.9-6.46 3.54-10.9 3.34-3.81-0.64-5.99-1.96-9.07-4.34-1.2-3.33-1.18-5.21-0.37-8.63 1.72-2.97 3.49-4.52 6.37-6.37h4c0.47-3.96 0.34-5.55-2.06-8.82-5.54-4.13-11.9-3.26-18.5-3.02-2.46-0.16-2.46-0.16-5.46-2.16 0.5-5.04 1.83-9.07 5-13 7.03-4.3 12.9-4.12 20.9-3.88z" fill="#063F70"/>
<path transform="translate(1235,632)" d="m0 0c2.66 2.66 2.29 4.06 2.38 7.78 0.05 1.73 0.05 1.73 0.1 3.49 0.03 1.21 0.06 2.42 0.08 3.67 0.06 2.38 0.13 4.77 0.19 7.15 0.03 1.06 0.05 2.12 0.08 3.21 0.06 2.8 0.06 2.8 1.17 5.7 0.91 0.04 1.82 0.08 2.75 0.12 3.25 0.88 3.25 0.88 5.63 3.57 1.77 3.61 2.38 5.36 1.62 9.31-2.55 3.1-4.18 4.73-8 6-5.18 0.39-8.77 0.17-13-3-3.64-7.79-3.4-15.6-3.28-24 0.03-2.35 0.04-4.7 0.05-7.05 0-1.5 0.02-3 0.03-4.5 0-0.7 0.01-1.4 0.01-2.12 0.04-3.03 0.22-5.39 1.19-8.29 3.24-1.08 5.6-1.22 9-1z" fill="#053E6F"/>
<path transform="translate(1049,605)" d="m0 0c4.74 2.99 6.73 5.55 8 11 2.25-2.17 4.07-4.1 5.75-6.75 2.25-2.25 2.25-2.25 4.28-2.57 1.99 0.01 3.98 0.15 5.97 0.32 1 3 1 3 0.07 5.04-0.45 0.71-0.91 1.42-1.38 2.15-0.45 0.71-0.9 1.43-1.37 2.17-0.43 0.54-0.87 1.08-1.32 1.64h-2c-0.22 0.6-0.44 1.21-0.66 1.83-1.79 2.9-3.6 3.53-6.72 4.86-0.95 0.41-1.91 0.83-2.89 1.26-4.93 1.9-9.46 2.68-14.7 2.05-2.5-1.38-2.5-1.38-4-3v-2c0.99-0.33 1.98-0.66 3-1-0.79-2-0.79-2-2-4-0.99-0.33-1.98-0.66-3-1-0.84-2.93-1.07-4.71-0.31-7.69 2.84-5 7.95-5.31 13.3-4.31z" fill="#0B396D"/>
<path transform="translate(1387 603)" d="m0 0c1.05 0.25 2.1 0.5 3.19 0.75l1 6c-2.99 2.57-5.14 4.22-9 5 0.19 0.9 0.19 0.9 0.39 1.83 0.43 2.45 0.71 4.68 0.61 7.17-2.25 2.65-4.12 3.61-7.25 5-4.34 0-8.04-1.83-11.8-4-1.78-3.55-1.46-7.51-0.31-11.2 3.18-4.25 7.49-5.08 12.4-6.14 2.19-0.56 2.19-0.56 4.47-2.8 2.44-1.81 2.44-1.81 6.25-1.56z" fill="#033369"/>
<path transform="translate(1118 643)" d="m0 0c3.37 4.21 2.47 9.97 2.5 15.1 0.02 0.97 0.04 1.93 0.06 2.92 0.01 0.92 0.01 1.85 0.02 2.8 0.01 1.27 0.01 1.27 0.03 2.56-0.44 2.74-1.18 3.57-3.36 5.22-3.31 1.11-5.25 0.93-8.69 0.56-0.99-0.1-1.99-0.2-3.01-0.3-0.76-0.09-1.52-0.17-2.3-0.26l-1-5c0.94-0.38 0.94-0.38 1.9-0.77 0.82-0.34 1.63-0.69 2.47-1.04 0.82-0.34 1.63-0.67 2.47-1.02 2.46-1.11 2.46-1.11 4.16-4.17-0.08-3.81-0.78-5.69-3-8.81-3.94-2.87-7.23-3.07-12-3.19 1.72-3.79 3.18-5.18 7-7 5.18-1.4 8.56-1 12.8 2.44z" fill="#FEFEFE"/>
<path transform="translate(152,624)" d="m0 0h1c0.02 3.95 0.04 7.9 0.05 11.8 0.01 2.01 0.03 4.02 0.04 6.02 0 1.26 0 2.51 0.01 3.81 0 1.16 0.01 2.32 0.01 3.52-0.11 2.8-0.11 2.8-1.11 4.8-0.39 2.2-0.74 4.41-1.06 6.62-0.18 1.19-0.36 2.38-0.54 3.61-0.13 0.91-0.26 1.83-0.4 2.77-1.49 0.5-1.49 0.5-3 1l-1 2v-5h-2l-1 4-1-21h-1c-1.15-11.5-1.15-11.5-1-17 0.99-0.33 1.98-0.66 3-1 1.21-2 1.21-2 2-4l2 8h2v-3h3v-7z" fill="#033469"/>
<path transform="translate(854 697)" d="m0 0c2.32-0 4.64-0.01 6.96-0.01 4.82-0.01 9.63-0.01 14.4-0.01 6.18 0 12.4-0.01 18.5-0.03 4.77-0.01 9.54-0.01 14.3-0.01 2.28 0 4.56-0.01 6.84-0.01 3.17-0.01 6.33-0.01 9.5 0 1.41-0.01 1.41-0.01 2.86-0.02 1.28 0 1.28 0 2.6 0.01h2.26c1.83 0.25 1.83 0.25 3.83 2.25 0.19 2.38 0.19 2.38 0.12 5.12-0.01 0.91-0.03 1.82-0.05 2.76-0.02 0.7-0.05 1.4-0.07 2.12-3.29-1.65-3.88-4.63-5-8-13.2-0.9-26.4-1.09-39.6-1.06h-2.54c-6.99 0.01-14 0.04-21 0.07-6.08 0.02-12.2 0.04-18.2 0.05-0.83 0-1.66 0-2.51 0.01-12.8 0.01-25.5-0.26-38.2-1.07v-1c15-0.91 29.9-1.17 44.8-1.17z" fill="#033369"/>
<path transform="translate(1053 632)" d="m0 0c1.61 0.03 1.61 0.03 3.25 0.06 8.71 0.36 8.71 0.36 11.9 3.5 0.58 0.81 1.16 1.61 1.76 2.44-3.05 3.51-5.44 5.05-10 6-8.25-0.25-8.25-0.25-10-2-1.69-0.07-3.38-0.08-5.07-0.06-0.92 0.01-1.84 0.02-2.78 0.02-0.71 0.02-1.42 0.03-2.15 0.04-0.33-0.66-0.67-1.32-1-2-1 0.66-1.99 1.32-3 2-0.67-0.33-1.32-0.66-2-1v-6c6.39-3.5 12-3.34 19.1-3z" fill="#033369"/>
<path transform="translate(271,697)" d="m0 0c10.4-0.05 20.8-0.08 31.1-0.1 4.82-0.01 9.63-0.03 14.4-0.05 4.65-0.02 9.3-0.03 14-0.04 1.78 0 3.55-0.01 5.33-0.02 2.48-0.02 4.96-0.02 7.45-0.02 0.73 0 1.47-0.01 2.23-0.02 3.71 0.02 5.28 0.13 8.45 2.25-21.4 3.86-43.8 2.15-65.4 1.56-1.14-0.03-1.14-0.03-2.31-0.06-2.16-0.05-4.33-0.12-6.5-0.18-1.25-0.04-2.51-0.08-3.8-0.11-2.95-0.21-2.95-0.21-4.95-1.21v-2z" fill="#033369"/>
<path transform="translate(964 633)" d="m0 0c0.97 0.07 1.94 0.13 2.94 0.2 2.5 0.55 2.5 0.55 4.5 3.55 0.39 2.32 0.73 4.66 1 7-2.25 0.75-2.25 0.75-5 1-2.32-1.81-2.32-1.81-4-4v-2l-4 1c-0.03 1.46-0.05 2.92-0.06 4.37-0.02 0.82-0.03 1.63-0.04 2.47-0.05 2.21-0.05 2.21 1.1 4.16-3.45-0.3-5.06-1.04-7.88-3.13-2.12-2.87-2.12-2.87-2.18-6.43 1.13-3.66 2.05-5.14 5.06-7.44 3.23-1.08 5.2-1.02 8.56-0.75z" fill="#033369"/>
<path transform="translate(1104,632)" d="m0 0 1 3c0.93-0.21 1.86-0.41 2.81-0.62 3.19-0.38 3.19-0.38 6.19 1.62-3.05 0.98-4.95 0.98-8 0l2 5c-4.27 2.18-8.5 4.31-13 6v2l-8-1-1-3c3.47-6.47 7.87-10 14.8-12.2 1.05-0.27 2.11-0.53 3.19-0.81z" fill="#033469"/>
<path transform="translate(1383,603)" d="m0 0c2.34 0.29 4.67 0.62 7 1l1 6c-5.14 4.43-5.14 4.43-9 5l1 6c-1.32-0.59-2.63-1.2-3.94-1.81-0.73-0.34-1.46-0.68-2.21-1.02-1.85-1.17-1.85-1.17-2.85-4.17 1.94-0.56 1.94-0.56 4-1l1 1v-5l-3 2v-3c2.94-2.12 2.94-2.12 6-4l1-1z" fill="#00396C"/>
<path transform="translate(1052 663)" d="m0 0c2.31 1.06 2.31 1.06 3.62 3.62 0.35 1.21 0.35 1.21 0.69 2.44h-5c-0.93 3.01-1.04 3.87 0 7 0.04 1.67 0.05 3.34 0 5 0.99 0.33 1.98 0.66 3 1-4.33-0.5-7.59-1.18-11-4-1.06-3.25-1.16-5.3-0.37-8.62 2.21-3.83 4.49-6.33 9.06-6.44z" fill="#033369"/>
<path transform="translate(1361,634)" d="m0 0c2.03 2.12 3.19 4.18 4 7-0.44 3.81-0.44 3.81-2 7-2.62 1.44-2.62 1.44-5 2l-2-2 2-3h2v-3h-2v-2c-1.36-0.22-1.36-0.22-2.75-0.44-2.46-0.42-4.84-0.91-7.25-1.56v-3l-2-1c10.8-1.56 10.8-1.56 15 0z" fill="#003A6C"/>
<path transform="translate(1273,635)" d="m0 0 1 5h-2c0.02 0.72 0.04 1.44 0.06 2.19-0.06 2.73-0.45 5.15-1.06 7.81-3 0-3 0-5.12-1.12-1.88-1.88-1.88-1.88-2.88-4.69 0-4.18 1.4-6 4-9.19 2.49-1.25 3.41-0.78 6 0z" fill="#033369"/>
<path transform="translate(145,640)" d="m0 0h2l1 7h2c-0.08 0.63-0.17 1.25-0.25 1.9-0.11 0.82-0.21 1.63-0.31 2.48-0.11 0.81-0.21 1.62-0.32 2.46-0.3 2.21-0.3 2.21 0.88 4.16 0.07 1.54 0.08 3.08 0.06 4.62-0.01 0.82-0.02 1.64-0.02 2.48-0.02 0.63-0.03 1.25-0.04 1.9-0.99 0.33-1.98 0.66-3 1l-1 2c-0.86-3.72-1.12-7.14-1.1-11 0.01-1.11 0.01-2.22 0.01-3.37 0.01-1.15 0.02-2.3 0.03-3.48 0-1.17 0.01-2.34 0.01-3.55 0.01-2.88 0.03-5.76 0.05-8.64z" fill="#003B6D"/>
<path transform="translate(326,741)" d="m0 0c5.1 0.48 9.11 0.95 12.7 4.8 0.75 1.03 0.75 1.03 1.52 2.08 0.76 1.01 0.76 1.01 1.54 2.05 1.26 2.05 1.83 3.72 2.27 6.07-0.99 0.5-0.99 0.5-2 1-1.76-1.6-2.9-2.77-3.82-4.98-1.54-2.63-2.92-3.04-5.74-4.08-2.44-0.91-2.44-0.91-4.44-1.94l-1-3-2-1 1-1z" fill="#02366A"/>
<path transform="translate(1366,721)" d="m0 0h16c0.9 4.49 0.9 6.68 0 11-0.99-0.33-1.98-0.66-3-1-1.19-2.56-1.19-2.56-2-5-1.05 0.06-1.05 0.06-2.12 0.12-3.26-0.14-5.84-0.99-8.88-2.12v-3z" fill="#033369"/>
<path transform="translate(887,697)" d="m0 0h23c-0.99 1.49-0.99 1.49-2 3-2.25 0.34-2.25 0.34-5.01 0.29-0.98-0.01-1.97-0.02-2.99-0.03-1.03-0.02-2.06-0.05-3.12-0.07-1.57-0.02-1.57-0.02-3.16-0.04-2.57-0.04-5.15-0.09-7.72-0.15l1-3z" fill="#033469"/>
<path transform="translate(1062,640)" d="m0 0-2 4c-6.2-0.42-11.3-1.6-17-4 0.6-0.14 1.2-0.29 1.81-0.44 6.13-1.57 11.1-1.34 17.2 0.44z" fill="#00396C"/>
<path transform="translate(1346,634)" d="m0 0c1.46-0.05 2.92-0.09 4.38-0.12 0.81-0.03 1.62-0.05 2.46-0.08 2.16 0.2 2.16 0.2 4.16 2.2h3c1 3 1 3 0 6h-2v-2c-1.36-0.22-1.36-0.22-2.75-0.44-2.46-0.42-4.84-0.91-7.25-1.56v-3l-2-1z" fill="#033369"/>
<path transform="translate(1e3 697)" d="m0 0h19v2h7v1h-30l4-1v-2z" fill="#02356A"/>
<path transform="translate(1383,603)" d="m0 0c2.31 0.33 4.62 0.66 7 1 0.69 2.81 0.69 2.81 1 6-1.44 1.88-1.44 1.88-3 3-2-1-2-1-2.85-3.07-0.26-0.82-0.51-1.64-0.77-2.49-0.27-0.83-0.53-1.66-0.79-2.51-0.2-0.63-0.39-1.27-0.59-1.93z" fill="#033369"/>
<path transform="translate(1049,632)" d="m0 0 1 4c-3.75 1.12-3.75 1.12-6 0-2-0.04-4-0.04-6 0l1-3c3.21-1.61 6.44-1.06 10-1z" fill="#003A6C"/>
<path transform="translate(276,779)" d="m0 0c2 3 2 3 2 6h2l-1 3c-2 0.75-2 0.75-4 1-1-1-1-1-1.1-2.85 0.03-2.05 0.07-4.1 0.1-6.15l2-1z" fill="#033369"/>
<path transform="translate(1268,721)" d="m0 0 10 1c-4.91 3.68-6.18 3.29-12 3l2-4z" fill="#043369"/>
<path transform="translate(1360,642)" d="m0 0c1.56 1.25 1.56 1.25 3 3-0.31 2.19-0.31 2.19-1 4-1.88 0.62-1.88 0.62-4 1l-2-2 2-3h2v-3z" fill="#033369"/>
<path transform="translate(151,1018)" d="m0 0c4.62 0.66 9.24 1.32 14 2v1l-15 1 1-4z" fill="#00396C"/>
<path transform="translate(1152,671)" d="m0 0c1.88 0.25 1.88 0.25 4 1 1.72 2.58 2 3.85 2 7-2.47-1.15-4.05-2.05-6-4v-4z" fill="#033469"/>
<path transform="translate(1051,633)" d="m0 0c6.62-0.12 6.62-0.12 10 1v2c-4.05 1.16-6.22 0.84-10-1v-2z" fill="#003B6D"/>
<path transform="translate(268,866)" d="m0 0 1 2c-9.41 0.18-9.41 0.18-14-1v-1c4.62-1.3 8.34-0.85 13 0z" fill="#033369"/>
<path transform="translate(1021,697)" d="m0 0v2h7v1h-16l1-2c2.77-0.73 5.13-1 8-1z" fill="#033469"/>
<path transform="translate(1372,618)" d="m0 0 5 1-1 5-4-2v-4z" fill="#5E82A2"/>
<path transform="translate(155,1015)" d="m0 0h8l1 3h-9v-3z" fill="#003B6D"/>
<path transform="translate(895,697)" d="m0 0h15c-0.99 1.49-0.99 1.49-2 3-4.34-0.61-8.68-1.26-13-2v-1z" fill="#02366A"/>
</svg>
