<?xml version="1.0" encoding="iso-8859-1"?>
<!-- Uploaded to: SVG Repo, www.svgrepo.com, Generator: SVG Repo Mixer Tools -->
<svg height="current" width="current" version="1.1" id="Layer_1" xmlns="http://www.w3.org/2000/svg" xmlns:xlink="http://www.w3.org/1999/xlink" 
	 viewBox="0 0 511.991 511.991" xml:space="preserve">
<polygon style="fill:#4B89DA;" points="423.267,171.726 379.925,151.727 322.583,172.398 255.078,147.056 190.596,178.398 
	123.27,147.056 79.929,174.398 23.274,171.726 87.928,396.383 424.58,392.383 484.578,171.726 "/>
<path style="fill:#5E9CEA;" d="M490.655,145.993l-24.827,16.562c-4.875,3.25-11.312,4.875-17.75,4.875
	c-6.437,0-12.873-1.625-17.748-4.875l-28.499-18.999c-4.875-3.25-11.312-4.891-17.75-4.891s-12.875,1.641-17.749,4.891
	l-28.499,18.999c-4.891,3.25-11.312,4.875-17.749,4.875c-6.438,0-12.875-1.625-17.749-4.875l-28.499-18.999
	c-4.883-3.25-11.32-4.891-17.758-4.891c-6.437,0-12.875,1.641-17.75,4.891l-28.499,18.999c-4.875,3.25-11.312,4.875-17.75,4.875
	s-12.875-1.625-17.75-4.875l-28.499-18.999c-4.875-3.25-11.312-4.891-17.75-4.891s-12.875,1.641-17.75,4.891l-28.499,18.999
	c-4.875,3.25-11.312,4.875-17.75,4.875s-12.875-1.625-17.75-4.875l-26.812-17.874v25.639l14.968,9.984
	c8.188,5.453,18.703,8.468,29.593,8.468s21.405-3.016,29.592-8.468l28.483-19c0.672-0.453,2.781-1.297,5.922-1.297
	c3.141,0,5.25,0.844,5.906,1.297l28.499,19c8.187,5.453,18.703,8.468,29.593,8.468s21.39-3.016,29.577-8.468l28.5-19
	c0.672-0.453,2.781-1.297,5.921-1.297c3.125,0,5.25,0.844,5.906,1.297l28.507,19c8.188,5.453,18.702,8.468,29.593,8.468
	c10.874,0,21.39-3.016,29.577-8.468l28.498-19c0.672-0.453,2.766-1.297,5.922-1.297c3.125,0,5.25,0.844,5.906,1.297l28.5,19
	c8.187,5.453,18.702,8.468,29.591,8.468c10.875,0,21.391-3.016,29.578-8.468l12.999-8.672v-25.639H490.655z"/>
<path style="fill:#646C77;" d="M426.658,405.32H85.334c-4.828,0-9.046-3.234-10.312-7.891L0.369,120.119
	c-1.531-5.703,1.844-11.546,7.531-13.078s11.531,1.844,13.062,7.531l72.544,269.404h324.981l72.527-269.404
	c1.531-5.688,7.391-9.062,13.078-7.531s9.062,7.375,7.53,13.078L436.954,397.43C435.705,402.086,431.486,405.32,426.658,405.32z"/>
<g>
	<path style="fill:#F4F6F9;" d="M197.659,230.599c22.045,0,37.202,12.468,37.202,30.671c0,10.852-6.062,19.461-15.64,22.023
		c12.453,3.031,19.796,12.608,19.796,25.717c0,21.233-17.093,36.233-41.514,36.233c-25.39,0-41.358-15-41.358-38.952v-1.594h21.874
		c0.156,13.719,6.875,21.39,19,21.39c11.187,0,18.531-6.858,18.531-16.921c0-12.468-9.594-16.608-20.281-16.608
		c-2.406,0-3.359,0-5.594,0.156v-15.968c1.75,0.156,2.406,0.156,3.844,0.156c13.093,0,19.468-4.625,19.468-14.039
		c0-8.469-6.219-14.062-15.484-14.062c-10.547,0-16.609,6.718-16.921,19.172H159.02
		C159.816,244.974,174.018,230.599,197.659,230.599z"/>
	<path style="fill:#F4F6F9;" d="M328.13,288.09c0,35.436-15.327,56.998-40.732,56.998c-25.866,0-41.35-21.234-41.35-56.998
		c0-26.351,9.406-57.319,41.194-57.319C319.334,230.771,328.13,261.739,328.13,288.09z M268.391,289.199
		c0,25.39,6.086,37.529,18.851,37.529c12.469,0,18.53-12.624,18.53-38.639c0-26.663-5.749-38.647-18.687-38.647
		C268.391,249.442,268.391,275.95,268.391,289.199z"/>
	<path style="fill:#F4F6F9;" d="M363.426,282.809c-14.374,0-26.03-11.648-26.03-26.008c0-14.375,11.656-26.03,26.03-26.03
		s26.03,11.656,26.03,26.03C389.456,271.161,377.8,282.809,363.426,282.809z M363.426,245.13c-6.406,0-11.499,5.281-11.499,11.671
		c0,6.375,5.093,11.485,11.499,11.485c6.375,0,11.499-5.109,11.499-11.485C374.925,250.411,369.801,245.13,363.426,245.13z"/>
</g>
</svg>