<?xml version="1.0" encoding="iso-8859-1"?>
<!-- Uploaded to: SVG Repo, www.svgrepo.com, Generator: SVG Repo Mixer Tools -->
<svg height="current" width="current" version="1.1" id="Layer_1" xmlns="http://www.w3.org/2000/svg" xmlns:xlink="http://www.w3.org/1999/xlink" 
	 viewBox="0 0 511.972 511.972" xml:space="preserve">
<polygon style="fill:#D94452;" points="423.246,171.716 379.903,151.717 322.577,172.388 255.08,147.061 190.582,178.388 
	123.257,147.061 79.93,174.388 23.26,171.716 87.93,396.373 424.574,392.373 484.572,171.716 "/>
<path style="fill:#EC5564;" d="M490.633,145.999l-24.827,16.546c-4.875,3.25-11.312,4.891-17.75,4.891
	c-6.437,0-12.873-1.641-17.748-4.891l-28.499-18.999c-4.875-3.25-11.312-4.875-17.75-4.875s-12.859,1.625-17.749,4.875
	l-28.499,18.999c-4.875,3.25-11.312,4.891-17.749,4.891c-6.438,0-12.875-1.641-17.749-4.891l-28.499-18.999
	c-4.875-3.25-11.312-4.875-17.75-4.875c-6.437,0-12.859,1.625-17.75,4.875l-28.499,18.999c-4.875,3.25-11.312,4.891-17.75,4.891
	s-12.859-1.641-17.75-4.891l-28.499-18.999c-4.875-3.25-11.312-4.875-17.75-4.875c-6.422,0-12.859,1.625-17.75,4.875l-28.499,18.999
	c-4.875,3.25-11.312,4.891-17.75,4.891c-6.422,0-12.859-1.641-17.75-4.891l-26.791-17.874v25.639l14.968,9.984
	c8.188,5.453,18.703,8.468,29.578,8.468c10.89,0,21.405-3.016,29.592-8.468l28.499-19c0.672-0.453,2.766-1.297,5.906-1.297
	c3.14,0,5.25,0.844,5.922,1.297l28.499,19c8.187,5.453,18.687,8.468,29.577,8.468s21.406-3.016,29.592-8.468l28.5-19
	c0.672-0.453,2.765-1.297,5.906-1.297s5.25,0.844,5.922,1.297l28.499,19c8.188,5.453,18.687,8.468,29.577,8.468
	c10.89,0,21.405-3.016,29.577-8.468l28.498-19c0.688-0.453,2.781-1.297,5.922-1.297s5.25,0.844,5.922,1.297l28.5,19
	c8.187,5.453,18.687,8.468,29.575,8.468c10.891,0,21.406-3.016,29.578-8.468l12.999-8.656L490.633,145.999L490.633,145.999z"/>
<path style="fill:#646C77;" d="M426.636,405.31H85.32c-4.812,0-9.046-3.234-10.296-7.891L0.37,120.109
	c-1.531-5.687,1.828-11.546,7.516-13.078s11.546,1.844,13.078,7.531l72.544,269.42h324.958l72.543-269.42
	c1.531-5.688,7.391-9.062,13.078-7.531s9.046,7.391,7.515,13.078L436.95,397.42C435.683,402.076,431.465,405.31,426.636,405.31z"/>
<g>
	<path style="fill:#F4F6F9;" d="M180.083,315.063c1.766,8.468,7.031,12.78,15.328,12.78c16.609,0,19.484-20.437,20.609-33.529
		c-6.078,8.609-12.938,12.921-23.953,12.921c-20.593,0-35.452-15.483-35.452-36.865c0-22.844,17.249-39.921,40.233-39.921
		c31.139,0,41.686,27.937,41.686,54.445c0,26.982-10.375,60.2-43.123,60.2c-20.437,0-34.64-11.672-36.874-30.03h21.546V315.063z
		 M178.817,269.573c0,11.805,7.343,20.429,17.718,20.429c10.218,0,17.718-8.624,17.718-20.272c0-11.828-7.656-20.609-17.875-20.609
		C186.317,249.12,178.817,257.901,178.817,269.573z"/>
	<path style="fill:#F4F6F9;" d="M321.25,251.682h-45.826l-4.312,24.258c5.422-5.414,11.656-7.805,20.593-7.805
		c21.405,0,35.607,14.523,35.607,36.553c0,23.468-17.562,40.233-42.153,40.233c-22.672,0-39.437-11.969-40.718-34.812H266.8
		c0.953,9.75,8.297,16.452,18.359,16.452c11.343,0,19.326-8.78,19.326-21.39c0-12.624-7.671-20.607-19.482-20.607
		c-7.5,0-12.453,2.718-16.766,9.265h-20.281l10.859-61.475h62.436L321.25,251.682L321.25,251.682z"/>
	<path style="fill:#F4F6F9;" d="M363.404,282.815c-14.374,0-26.03-11.648-26.03-26.024c0-14.375,11.656-26.03,26.03-26.03
		s26.03,11.656,26.03,26.03C389.434,271.167,377.778,282.815,363.404,282.815z M363.404,245.135
		c-6.391,0-11.499,5.266-11.499,11.656c0,6.391,5.108,11.5,11.499,11.5s11.499-5.109,11.499-11.5
		C374.903,250.401,369.795,245.135,363.404,245.135z"/>
</g>
</svg>