<?xml version="1.0" encoding="iso-8859-1"?>
<!-- Uploaded to: SVG Repo, www.svgrepo.com, Generator: SVG Repo Mixer Tools -->
<svg version="1.1" id="Layer_1" xmlns="http://www.w3.org/2000/svg" xmlns:xlink="http://www.w3.org/1999/xlink" 
	 viewBox="0 0 512 512" xml:space="preserve">
<g>
	<rect x="47.192" y="136.669" style="fill:#CCCCCC;" width="417.606" height="365.131"/>
	<rect x="47.192" y="10.199" style="fill:#CCCCCC;" width="417.606" height="53.036"/>
</g>
<rect x="47.192" y="63.235" style="fill:#FAD05B;" width="417.606" height="73.434"/>
<path d="M36.997,501.801c0,5.633,4.566,10.199,10.199,10.199h417.607c5.633,0,10.199-4.566,10.199-10.199V10.199
	C475.003,4.566,470.437,0,464.804,0H47.196c-5.633,0-10.199,4.566-10.199,10.199V501.801z M57.396,73.434h220.023v53.036H57.396
	V73.434z M297.817,73.434h101.992v53.036H297.817V73.434z M420.208,73.434h34.398v53.036h-34.398V73.434z M57.396,20.398h397.209
	v32.637H57.396V20.398z M454.606,491.602H57.396V146.869h397.209v344.733H454.606z"/>
<path d="M376.351,85.673h-5.1c-5.633,0-10.199,4.566-10.199,10.199s4.566,10.199,10.199,10.199h5.1
	c5.633,0,10.199-4.566,10.199-10.199S381.984,85.673,376.351,85.673z"/>
<path d="M339.634,85.673h-17.339c-5.633,0-10.199,4.566-10.199,10.199s4.566,10.199,10.199,10.199h17.339
	c5.633,0,10.199-4.566,10.199-10.199S345.267,85.673,339.634,85.673z"/>
<path d="M96.893,84.653c-8.436,0-15.299,6.863-15.299,15.299s6.863,15.299,15.299,15.299s15.299-6.863,15.299-15.299
	S105.329,84.653,96.893,84.653z M96.893,105.052c-2.812,0-5.1-2.288-5.1-5.1s2.288-5.1,5.1-5.1c2.812,0,5.1,2.288,5.1,5.1
	S99.705,105.052,96.893,105.052z"/>
<path d="M145.849,84.653c-8.436,0-15.299,6.863-15.299,15.299s6.863,15.299,15.299,15.299s15.299-6.863,15.299-15.299
	S154.285,84.653,145.849,84.653z M145.849,105.052c-2.812,0-5.1-2.288-5.1-5.1s2.288-5.1,5.1-5.1s5.1,2.288,5.1,5.1
	S148.661,105.052,145.849,105.052z"/>
</svg>